<?xml version="1.0" encoding="utf-8"?>
<!-- Generator: Adobe Illustrator 26.0.0, SVG Export Plug-In . SVG Version: 6.00 Build 0)  -->
<svg version="1.1" id="paw" xmlns="http://www.w3.org/2000/svg" xmlns:xlink="http://www.w3.org/1999/xlink" x="0px" y="0px"
	 viewBox="0 0 526.7 526.7" style="enable-background:new 0 0 526.7 526.7;" xml:space="preserve">
<style type="text/css">
	.st0{opacity:0.39;fill-rule:evenodd;clip-rule:evenodd;fill:#09767A;enable-background:new    ;}
	.st1{opacity:0.53;fill:#595757;stroke:#040000;stroke-miterlimit:10;enable-background:new    ;}
	
		.st2{opacity:0.53;fill-rule:evenodd;clip-rule:evenodd;fill:#595757;stroke:#040000;stroke-width:1;stroke-miterlimit:9.9994;enable-background:new    ;}
	.st3{fill-rule:evenodd;clip-rule:evenodd;fill:#F0BA7C;stroke:#040000;stroke-miterlimit:10;}
	
		.st4{opacity:0.53;fill-rule:evenodd;clip-rule:evenodd;fill:#595757;stroke:#040000;stroke-width:1;stroke-miterlimit:10;enable-background:new    ;}
	
		.st5{opacity:0.53;fill-rule:evenodd;clip-rule:evenodd;fill:#595757;stroke:#040000;stroke-miterlimit:10;enable-background:new    ;}
	
		.st6{opacity:0.35;fill-rule:evenodd;clip-rule:evenodd;fill:#595757;stroke:#040000;stroke-miterlimit:10;enable-background:new    ;}
	.st7{fill:#F0BA7C;stroke:#040000;stroke-miterlimit:10;}
</style>
<path class="st0" d="M504.3,157.1C445.6,24,290.2-36.3,157.1,22.4s-193.4,214-134.7,347.1c58.6,133.1,214,193.4,347.1,134.8
	C502.6,445.6,562.9,290.2,504.3,157.1z M483.1,392.7c-14.6,21.4-34,30-52.8,38.4l-0.2,0.1c-11.6,5.1-23.7,9-36.1,11.7
	c-10.4,2.4-18.4,3.3-25.4,4.1c-8.4,1-13.9,1.6-22.2,4.7c-7.8,4-12.1,7.7-18.4,13.2c-5.4,4.7-11.4,9.9-20.2,16
	c-10.3,7.4-21.4,13.7-33,18.8l-0.2,0.1c-18.9,8.3-38.4,16.8-64,13.1c-35.1-5.1-56.2-29.9-61.8-37.4c-11.6-15.5-23.8-41.7-17.5-79.7
	c-20-1-40.9-9.5-59.2-24.4c-6.4-5.1-12.3-10.8-17.6-17.1C48.3,347,43,339,38.6,330.7c-21.3-40-16.9-82.3,10.9-105.2
	c4.5-3.7,9.5-6.8,14.9-9.2c4.2-1.8,8.5-3.2,13.1-4.2C49.5,160.7,57.7,103.6,97,80.5c2.3-1.3,4.6-2.5,7-3.6c21.2-9.4,46-7.6,69.7,5
	c4.5,2.4,9,5.2,13.3,8.3c0.6-5.3,1.5-10.4,2.8-15.4c6.7-26,22.1-45.5,43.3-54.8c2.4-1.1,4.9-2,7.4-2.7c43.6-13.4,91.3,19,110.3,74.2
	c3.8-2.7,7.8-5,11.9-6.8c5.4-2.4,11-4,16.8-4.8c35.7-5,69.9,20.3,85,62.9c3.3,8.8,5.5,18.1,6.7,27.6c1,8.2,1.3,16.4,0.7,24.6
	c-1.3,23.6-9.2,44.8-21.9,60.2c32.2,21,43.4,47.6,47,66.7C499,331,503.1,363.4,483.1,392.7z"/>
<path class="st1" d="M497.2,321.8c-3.6-19.1-14.7-45.7-47-66.7c12.8-15.4,20.6-36.6,21.9-60.2c0.6-8.1,0.3-16.4-0.7-24.6
	c-1.2-9.5-3.5-18.8-6.7-27.6c-15.2-42.7-49.3-68-85-62.9c-5.8,0.8-11.5,2.4-16.8,4.8c-4.2,1.8-8.1,4.1-11.9,6.8
	c-19.1-55.2-66.7-87.7-110.3-74.2c-2.5,0.8-5,1.7-7.4,2.7c-21.2,9.4-36.6,28.8-43.3,54.8c-1.3,5-2.2,10.1-2.8,15.4
	c-4.3-3.1-8.7-5.9-13.3-8.3c-23.7-12.6-48.5-14.4-69.7-5c-2.4,1.1-4.7,2.3-7,3.6C57.7,103.6,49.5,160.6,77.4,212
	c-4.5,1-8.9,2.4-13.1,4.2c-5.4,2.4-10.4,5.5-14.9,9.2c-27.8,22.9-32.2,65.2-10.9,105.2c4.3,8.4,9.7,16.3,15.9,23.6
	c5.3,6.3,11.3,12,17.6,17.1c18.3,14.9,39.3,23.5,59.2,24.4c-6.3,37.9,5.9,64.1,17.5,79.7c5.6,7.5,26.7,32.4,61.8,37.4
	c25.6,3.7,45.1-4.9,64-13.1l0.2-0.1c11.6-5.1,22.7-11.4,33-18.8c8.7-6,14.8-11.3,20.2-16c6.4-5.5,10.6-9.2,18.4-13.2
	c8.3-3.1,13.8-3.7,22.2-4.7c7.1-0.8,15.1-1.7,25.4-4.1c12.4-2.6,24.5-6.6,36.1-11.7l0.2-0.1c18.8-8.3,38.3-16.9,52.8-38.4
	C503.1,363.4,499,331,497.2,321.8z M474.8,387.1c-13,19.1-30.3,26.7-48.6,34.8L426,422c-11,4.8-22.5,8.6-34.2,11.1
	c-9.8,2.3-17.6,3.2-24.4,3.9c-8.9,1-15.4,1.8-25.1,5.5c-9.3,4.7-14.2,9-21,14.8c-5.2,4.5-11.1,9.6-19.4,15.3
	c-9.8,7-20.3,13-31.3,17.8l-0.2,0.1c-18.4,8.1-35.7,15.7-58.5,12.4c-31.3-4.5-50.2-26.8-55.3-33.5c-11-14.7-22.5-40-14.7-77.4
	c0.5-2.5,1.1-4.8,1.7-6.8c-20.9,2.9-44.7-4.7-65.5-21.7c-5.9-4.7-11.4-10-16.3-15.8c-5.7-6.8-10.6-14.1-14.6-21.8
	c-19-35.7-15.6-73,8.4-92.9c3.8-3.1,8-5.7,12.6-7.7c5.1-2.2,10.6-3.7,16.3-4.4c3-0.6,6.2-0.9,9.3-1c-1.9-2.8-3.8-5.6-5.5-8.6
	c-28-47.6-22-101.3,13.6-122.2c1.9-1.1,3.9-2.2,6-3.1c18.4-8.1,40-6.4,61,4.7c9.8,5.2,19.1,12.3,27.4,21c-0.7-12,0.3-23.6,3-34.4
	c5.9-23,19.3-40.1,37.7-48.2c2-0.9,4.2-1.7,6.3-2.3c39.5-12.2,83.1,19.6,99.4,72.4c1,3.3,1.9,6.6,2.6,9.9c2.2-2.2,4.6-4.3,7-6.2
	c4.4-3.8,9.2-6.8,14.3-9.1c4.5-2,9.3-3.4,14.2-4c30.9-4.4,60.7,18.3,74.2,56.4c3,8.1,5.1,16.7,6.2,25.5c1,7.6,1.2,15.2,0.7,22.7
	c-1.5,26.8-12,49.5-28.2,63c1.9,0.9,4,2,6.2,3.3c32.9,19.5,43.8,45,47.2,63C488.9,331.9,492.7,360.9,474.8,387.1z"/>
<ellipse transform="matrix(0.9556 -0.2946 0.2946 0.9556 -23.5233 85.6468)" class="st2" cx="272.5" cy="120.9" rx="48.6" ry="73.4"/>
<path class="st3" d="M294.7,182.9c-0.9,0.4-1.8,0.7-2.8,1c-21.3,6.6-48.2-16.7-58.7-50.9c-10.1-32.9-2.6-65.4,17.1-74.1
	c0.9-0.4,1.8-0.7,2.8-1c9.9-3.1,21.4,0.2,32.2,9.1c11.7,9.6,21.1,24.5,26.5,41.8C322,141.6,314.4,174.2,294.7,182.9L294.7,182.9z"/>
<ellipse transform="matrix(0.8622 -0.5066 0.5066 0.8622 -67.187 100.9851)" class="st4" cx="152" cy="174" rx="48.6" ry="73.4"/>
<path class="st3" d="M182.8,232.2c-19.7,8.7-48.9-7.7-66.3-37.4c-9.2-15.7-13.8-32.6-13-47.8c0.8-14,6.1-24.6,15.1-29.9
	c0.8-0.5,1.7-0.9,2.6-1.3c19.7-8.7,48.8,7.7,66.3,37.4c9.2,15.7,13.8,32.6,13,47.8c-0.8,14-6.1,24.6-15.1,29.9
	C184.5,231.3,183.7,231.8,182.8,232.2L182.8,232.2z"/>
<path class="st5" d="M431.8,154.7c-9.1-25.9-28.1-42.9-47.2-40.2c-6.1,0.9-11.6,3.6-16.3,7.9c-15.8,11.4-24.9,36.4-21.3,63.9
	c4.4,34.5,26.9,60.2,50.8,58.9c1.7,0.1,3.5,0,5.2-0.2c19.3-2.7,32.8-24.6,34.3-52.1c0.4-5.8,0.3-11.8-0.5-18
	C435.8,167.7,434.1,160.9,431.8,154.7z"/>
<path class="st3" d="M407.5,235.9c-1.8,0.8-3.7,1.3-5.7,1.6c-1.2,0.2-2.5,0.2-3.8,0.2h-0.4h-0.4c-19.9,1.1-39.2-22.4-43-52.3
	c-3.1-24,4.3-46.8,18.3-56.9l0.3-0.2l0.3-0.3c2.1-1.9,4.4-3.4,6.7-4.4c1.8-0.8,3.7-1.3,5.6-1.6c15-2.1,31,12.4,39.1,35.3v0.1
	c2.2,5.9,3.7,12.1,4.5,18.5c0.7,5.5,0.9,11.1,0.5,16.5v0.1C428.6,213.4,419.9,230.5,407.5,235.9L407.5,235.9z"/>
<path class="st5" d="M150.1,273c-18-21.2-42.6-31.4-61.6-27.4c-6.3,0.6-12.1,2.8-16.8,6.7c-14.9,12.3-15.1,37.8-2.2,62
	c3,5.9,6.9,11.7,11.5,17.2c4,4.7,8.4,8.9,12.9,12.5c21.4,17.5,46.6,22.2,61.6,9.8c1.4-1.1,2.6-2.4,3.7-3.7
	C176.4,333.5,172.6,299.5,150.1,273z"/>
<path class="st3" d="M145.8,351.3c-12.3,5.4-30.8,0.4-47.1-13l-0.1-0.1c-4.3-3.4-8.3-7.3-11.9-11.5c-4.2-4.9-7.7-10.2-10.6-15.8
	l-0.1-0.1c-11.4-21.4-11.3-43.1,0.4-52.7c1.5-1.2,3.2-2.3,5-3.1c2.4-1,5-1.7,7.8-2h0.4l0.4-0.1c16.9-3.5,38.7,6.5,54.3,24.9
	c19.5,23,23.9,53.1,9.6,67l-0.3,0.3l-0.2,0.3c-0.9,1-1.8,1.9-2.7,2.7C149.3,349.4,147.6,350.4,145.8,351.3L145.8,351.3z"/>
<path class="st6" d="M427.4,282.2c-21.5-9.8-58.5-15.2-87.4-35.5c-28-18.4-24-27.2-47.1-32.1c-26.4-8.4-63.8,8.1-80.6,29.4
	c-16.7,24.1-8,28-12.9,64.7c-7.4,62-58.3,87.1-22.6,145.7c28.8,38.7,73.3,24,110.9-2.2c18.5-12.7,23.6-22.3,44.6-32.6
	c21.8-8.6,32.3-5.9,54.2-10.9c19.9-4.7,55.7-16.8,67.8-35.6C481.3,332.5,447.4,291.3,427.4,282.2z"/>
<path class="st6" d="M224.8,471.2c-39.7-2-58.5-33.4-50.9-72.5c1.4-6.6,2.9-9.2,5.8-14.4c10.9-19.5,21.4-44.1,27.1-74.4
	c5.6-30.1-5-37.9,11.6-61.6c9.1-12.5,21.6-17.6,29.5-20.8c13.8-7.5,32.9-10.9,50.3-3.7c17.6,7.9,16.7,16.7,37.9,29.1
	c18,11.6,34.4,17.7,46.4,22.2c21.3,8.6,25.6,5.3,41.3,13.4c32,20.4,42,47.6,24.4,80.2c-12.4,17.4-41.2,27-63.3,32.6
	c-21.6,4.9-32.4,2.3-55.2,11.2c-22.2,10.6-27.9,20.8-46.1,33.4C266.8,457.5,243.1,469.4,224.8,471.2z"/>
<g>
	<path class="st7" d="M417.2,299.4c-4.1-2.4-5.5-2.7-10.9-4c-7.6-1.2-29.7-8.5-42.5-14c-14.5-10.3-31.2-25.6-42.1-38.1
		c-9.1-11.2-20.8-19.8-35.2-22.6c-20.4-3.7-43.4,6.6-59.4,18.7c-14.8,11.7-20.5,31.5-18.3,49.7l0,0c1.8,22.7,5.3,53.1-5.4,74.8
		c-7.6,20.5-13,22.9-17.3,37.4c-5.2,29.9,4,49.6,32.3,57.2c17.8,1.6,41.2-11.8,57.6-22.5c18.4-12.8,25.1-24,48.9-34.9
		c31.7-12.2,54.2-6.5,83.1-20.2c14.9-6.6,23.9-10.6,29.6-19C451.2,335.7,442.8,315.7,417.2,299.4z"/>
	<path class="st7" d="M208.8,289L208.8,289L208.8,289z"/>
</g>
</svg>
